<mxfile host="Electron" modified="2023-12-15T20:33:12.638Z" agent="Mozilla/5.0 (Windows NT 10.0; Win64; x64) AppleWebKit/537.36 (KHTML, like Gecko) draw.io/22.1.2 Chrome/114.0.5735.289 Electron/25.9.4 Safari/537.36" version="22.1.2" etag="a5dmT2JlsjtustMTUDTt" type="device">
  <diagram name="Zeichenblatt-1" id="Zeichenblatt-1">
    <mxGraphModel dx="4998" dy="1672" grid="1" gridSize="10" guides="1" tooltips="1" connect="1" arrows="1" fold="1" page="1" pageScale="1" pageWidth="850" pageHeight="1100" math="0" shadow="0">
      <root>
        <mxCell id="0" />
        <mxCell id="1" parent="0" />
        <UserObject label="&lt;div style=&quot;font-size: 1px&quot;&gt;&lt;font style=&quot;font-size:50.8px;font-family:Calibri;color:#73acd9;direction:ltr;letter-spacing:0px;line-height:120%;opacity:1&quot;&gt;ÂµDos Python Workflow&lt;br/&gt;&lt;/font&gt;&lt;/div&gt;" tags="Background" id="2">
          <mxCell style="verticalAlign=middle;align=center;overflow=width;vsdxID=1;fillColor=none;gradientColor=none;shape=stencil(nZBLDoAgDERP0z3SIyjew0SURgSD+Lu9kMZoXLhwN9O+tukAlrNpJg1SzDH4QW/URgNYgZTkjA4UkwJUgGXng+6DX1zLfmoymdXo17xh5zmRJ6Q42BWCfc2oJfdAr+Yv+AP9Cb7OJ3H/2JG1HNGz/84klThPVCc=);strokeColor=none;strokeWidth=3;spacingTop=-1;spacingBottom=-1;spacingLeft=-1;spacingRight=-1;points=[];labelBackgroundColor=none;rounded=0;html=1;whiteSpace=wrap;" parent="1" vertex="1">
            <mxGeometry x="-591" y="20" width="579" height="95" as="geometry" />
          </mxCell>
        </UserObject>
        <UserObject label="&lt;div style=&quot;font-size: 1px&quot;&gt;&lt;font style=&quot;font-size:11.29px;font-family:Calibri;color:#000000;direction:ltr;letter-spacing:0px;line-height:120%;opacity:1&quot;&gt;Read folder / files&lt;br/&gt;&lt;/font&gt;&lt;/div&gt;" tags="Flussdiagramm" id="3">
          <mxCell style="verticalAlign=middle;align=center;overflow=width;vsdxID=2;fillColor=#f2f2f2;gradientColor=none;shape=stencil(nZBLDoAgDERP0z3SIyjew0SURgSD+Lu9kMZoXLhwN9O+tukAlrNpJg1SzDH4QW/URgNYgZTkjA4UkwJUgGXng+6DX1zLfmoymdXo17xh5zmRJ6Q42BWCfc2oJfdAr+Yv+AP9Cb7OJ3H/2JG1HNGz/84klThPVCc=);strokeColor=#000000;strokeWidth=2;spacingTop=-1;spacingBottom=-1;spacingLeft=-1;spacingRight=-1;points=[[0,0.5,0],[1,0.5,0],[0.5,1,0],[0.5,0,0]];labelBackgroundColor=none;rounded=0;html=1;whiteSpace=wrap;" parent="1" vertex="1">
            <mxGeometry x="-427" y="159" width="100" height="60" as="geometry" />
          </mxCell>
        </UserObject>
        <UserObject label="&lt;div style=&quot;font-size: 1px&quot;&gt;&lt;font style=&quot;font-size:11.29px;font-family:Calibri;color:#000000;direction:ltr;letter-spacing:0px;line-height:120%;opacity:1&quot;&gt;Calibrate + Scale --&amp;gt; Counts(y)&lt;br/&gt;&lt;/font&gt;&lt;/div&gt;" tags="Flussdiagramm" id="4">
          <mxCell style="verticalAlign=middle;align=center;overflow=width;vsdxID=4;fillColor=#f2f2f2;gradientColor=none;shape=stencil(nZBLDoAgDERP0z3SIyjew0SURgSD+Lu9kMZoXLhwN9O+tukAlrNpJg1SzDH4QW/URgNYgZTkjA4UkwJUgGXng+6DX1zLfmoymdXo17xh5zmRJ6Q42BWCfc2oJfdAr+Yv+AP9Cb7OJ3H/2JG1HNGz/84klThPVCc=);strokeColor=#000000;strokeWidth=2;spacingTop=-1;spacingBottom=-1;spacingLeft=-1;spacingRight=-1;points=[[0,0.5,0],[1,0.5,0],[0.5,1,0],[0.5,0,0]];labelBackgroundColor=none;rounded=0;html=1;whiteSpace=wrap;" parent="1" vertex="1">
            <mxGeometry x="-257" y="281" width="100" height="60" as="geometry" />
          </mxCell>
        </UserObject>
        <UserObject label="&lt;div style=&quot;font-size: 1px&quot;&gt;&lt;font style=&quot;font-size:11.29px;font-family:Calibri;color:#000000;direction:ltr;letter-spacing:0px;line-height:120%;opacity:1&quot;&gt;Probability function F(y), D(y)&lt;br/&gt;&lt;/font&gt;&lt;/div&gt;" tags="Flussdiagramm" id="5">
          <mxCell style="verticalAlign=middle;align=center;overflow=width;vsdxID=6;fillColor=#f2f2f2;gradientColor=none;shape=stencil(nZBLDoAgDERP0z3SIyjew0SURgSD+Lu9kMZoXLhwN9O+tukAlrNpJg1SzDH4QW/URgNYgZTkjA4UkwJUgGXng+6DX1zLfmoymdXo17xh5zmRJ6Q42BWCfc2oJfdAr+Yv+AP9Cb7OJ3H/2JG1HNGz/84klThPVCc=);strokeColor=#000000;strokeWidth=2;spacingTop=-1;spacingBottom=-1;spacingLeft=-1;spacingRight=-1;points=[[0,0.5,0],[1,0.5,0],[0.5,1,0],[0.5,0,0]];labelBackgroundColor=none;rounded=0;html=1;whiteSpace=wrap;" parent="1" vertex="1">
            <mxGeometry x="-430" y="630" width="100" height="60" as="geometry" />
          </mxCell>
        </UserObject>
        <UserObject label="&lt;div style=&quot;font-size: 1px&quot;&gt;&lt;font style=&quot;font-size:11.29px;font-family:Calibri;color:#000000;direction:ltr;letter-spacing:0px;line-height:120%;opacity:1&quot;&gt;Probability function F(y)&lt;br/&gt;&lt;/font&gt;&lt;/div&gt;" tags="Flussdiagramm" id="6">
          <mxCell style="verticalAlign=middle;align=center;overflow=width;vsdxID=7;fillColor=#f2f2f2;gradientColor=none;shape=stencil(nZBLDoAgDERP0z3SIyjew0SURgSD+Lu9kMZoXLhwN9O+tukAlrNpJg1SzDH4QW/URgNYgZTkjA4UkwJUgGXng+6DX1zLfmoymdXo17xh5zmRJ6Q42BWCfc2oJfdAr+Yv+AP9Cb7OJ3H/2JG1HNGz/84klThPVCc=);strokeColor=#000000;strokeWidth=2;spacingTop=-1;spacingBottom=-1;spacingLeft=-1;spacingRight=-1;points=[[0,0.5,0],[1,0.5,0],[0.5,1,0],[0.5,0,0]];labelBackgroundColor=none;rounded=0;html=1;whiteSpace=wrap;" parent="1" vertex="1">
            <mxGeometry x="-260" y="750" width="100" height="60" as="geometry" />
          </mxCell>
        </UserObject>
        <UserObject label="&lt;div style=&quot;font-size: 1px&quot;&gt;&lt;font style=&quot;font-size:11.29px;font-family:Calibri;color:#000000;direction:ltr;letter-spacing:0px;line-height:120%;opacity:1&quot;&gt;Probability density f(y), d(y)&lt;br/&gt;&lt;/font&gt;&lt;/div&gt;" tags="Flussdiagramm" id="7">
          <mxCell style="verticalAlign=middle;align=center;overflow=width;vsdxID=8;fillColor=#f2f2f2;gradientColor=none;shape=stencil(nZBLDoAgDERP0z3SIyjew0SURgSD+Lu9kMZoXLhwN9O+tukAlrNpJg1SzDH4QW/URgNYgZTkjA4UkwJUgGXng+6DX1zLfmoymdXo17xh5zmRJ6Q42BWCfc2oJfdAr+Yv+AP9Cb7OJ3H/2JG1HNGz/84klThPVCc=);strokeColor=#000000;strokeWidth=2;spacingTop=-1;spacingBottom=-1;spacingLeft=-1;spacingRight=-1;points=[[0,0.5,0],[1,0.5,0],[0.5,1,0],[0.5,0,0]];labelBackgroundColor=none;rounded=0;html=1;whiteSpace=wrap;" parent="1" vertex="1">
            <mxGeometry x="-432" y="870" width="100" height="60" as="geometry" />
          </mxCell>
        </UserObject>
        <UserObject label="&lt;div style=&quot;font-size: 1px&quot;&gt;&lt;font style=&quot;font-size:11.29px;font-family:Calibri;color:#000000;direction:ltr;letter-spacing:0px;line-height:120%;opacity:1&quot;&gt;Probability density f(y)&lt;br/&gt;&lt;/font&gt;&lt;/div&gt;" tags="Flussdiagramm" id="8">
          <mxCell style="verticalAlign=middle;align=center;overflow=width;vsdxID=9;fillColor=#f2f2f2;gradientColor=none;shape=stencil(nZBLDoAgDERP0z3SIyjew0SURgSD+Lu9kMZoXLhwN9O+tukAlrNpJg1SzDH4QW/URgNYgZTkjA4UkwJUgGXng+6DX1zLfmoymdXo17xh5zmRJ6Q42BWCfc2oJfdAr+Yv+AP9Cb7OJ3H/2JG1HNGz/84klThPVCc=);strokeColor=#000000;strokeWidth=2;spacingTop=-1;spacingBottom=-1;spacingLeft=-1;spacingRight=-1;points=[[0,0.5,0],[1,0.5,0],[0.5,1,0],[0.5,0,0]];labelBackgroundColor=none;rounded=0;html=1;whiteSpace=wrap;" parent="1" vertex="1">
            <mxGeometry x="-91" y="750" width="100" height="60" as="geometry" />
          </mxCell>
        </UserObject>
        <UserObject label="&lt;div style=&quot;font-size: 1px&quot;&gt;&lt;font style=&quot;font-size:11.29px;font-family:Calibri;color:#000000;direction:ltr;letter-spacing:0px;line-height:120%;opacity:1&quot;&gt;Weighted probability density yf(y), yd(y)&lt;br/&gt;&lt;/font&gt;&lt;/div&gt;" tags="Flussdiagramm" id="9">
          <mxCell style="verticalAlign=middle;align=center;overflow=width;vsdxID=10;fillColor=#f2f2f2;gradientColor=none;shape=stencil(nZBLDoAgDERP0z3SIyjew0SURgSD+Lu9kMZoXLhwN9O+tukAlrNpJg1SzDH4QW/URgNYgZTkjA4UkwJUgGXng+6DX1zLfmoymdXo17xh5zmRJ6Q42BWCfc2oJfdAr+Yv+AP9Cb7OJ3H/2JG1HNGz/84klThPVCc=);strokeColor=#000000;strokeWidth=2;spacingTop=-1;spacingBottom=-1;spacingLeft=-1;spacingRight=-1;points=[[0,0.5,0],[1,0.5,0],[0.5,1,0],[0.5,0,0]];labelBackgroundColor=none;rounded=0;html=1;whiteSpace=wrap;" parent="1" vertex="1">
            <mxGeometry x="-432" y="1106" width="100" height="60" as="geometry" />
          </mxCell>
        </UserObject>
        <UserObject label="&lt;div style=&quot;font-size: 1px&quot;&gt;&lt;font style=&quot;font-size:11.29px;font-family:Calibri;color:#000000;direction:ltr;letter-spacing:0px;line-height:120%;opacity:1&quot;&gt;Extrapolate f(y)&lt;br/&gt;&lt;/font&gt;&lt;/div&gt;" tags="Flussdiagramm" id="10">
          <mxCell style="verticalAlign=middle;align=center;overflow=width;vsdxID=11;fillColor=#f2f2f2;gradientColor=none;shape=stencil(nZBLDoAgDERP0z3SIyjew0SURgSD+Lu9kMZoXLhwN9O+tukAlrNpJg1SzDH4QW/URgNYgZTkjA4UkwJUgGXng+6DX1zLfmoymdXo17xh5zmRJ6Q42BWCfc2oJfdAr+Yv+AP9Cb7OJ3H/2JG1HNGz/84klThPVCc=);strokeColor=#000000;strokeWidth=2;spacingTop=-1;spacingBottom=-1;spacingLeft=-1;spacingRight=-1;points=[[0,0.5,0],[1,0.5,0],[0.5,1,0],[0.5,0,0]];labelBackgroundColor=none;rounded=0;html=1;whiteSpace=wrap;" parent="1" vertex="1">
            <mxGeometry x="-91" y="870" width="100" height="60" as="geometry" />
          </mxCell>
        </UserObject>
        <UserObject label="&lt;div style=&quot;font-size: 1px&quot;&gt;&lt;font style=&quot;font-size:11.29px;font-family:Calibri;color:#000000;direction:ltr;letter-spacing:0px;line-height:120%;opacity:1&quot;&gt;Dose probability density d(y)&lt;br/&gt;&lt;/font&gt;&lt;/div&gt;" tags="Flussdiagramm" id="11">
          <mxCell style="verticalAlign=middle;align=center;overflow=width;vsdxID=12;fillColor=#f2f2f2;gradientColor=none;shape=stencil(nZBLDoAgDERP0z3SIyjew0SURgSD+Lu9kMZoXLhwN9O+tukAlrNpJg1SzDH4QW/URgNYgZTkjA4UkwJUgGXng+6DX1zLfmoymdXo17xh5zmRJ6Q42BWCfc2oJfdAr+Yv+AP9Cb7OJ3H/2JG1HNGz/84klThPVCc=);strokeColor=#000000;strokeWidth=2;spacingTop=-1;spacingBottom=-1;spacingLeft=-1;spacingRight=-1;points=[[0,0.5,0],[1,0.5,0],[0.5,1,0],[0.5,0,0]];labelBackgroundColor=none;rounded=0;html=1;whiteSpace=wrap;" parent="1" vertex="1">
            <mxGeometry x="-91" y="1106" width="100" height="60" as="geometry" />
          </mxCell>
        </UserObject>
        <UserObject label="&lt;div style=&quot;font-size: 1px&quot;&gt;&lt;font style=&quot;font-size:11.29px;font-family:Calibri;color:#000000;direction:ltr;letter-spacing:0px;line-height:120%;opacity:1&quot;&gt;Merge spectra + Match gains&lt;br/&gt;&lt;/font&gt;&lt;/div&gt;" tags="Flussdiagramm" id="12">
          <mxCell style="verticalAlign=middle;align=center;overflow=width;vsdxID=14;fillColor=#f2f2f2;gradientColor=none;shape=stencil(nZBLDoAgDERP0z3SIyjew0SURgSD+Lu9kMZoXLhwN9O+tukAlrNpJg1SzDH4QW/URgNYgZTkjA4UkwJUgGXng+6DX1zLfmoymdXo17xh5zmRJ6Q42BWCfc2oJfdAr+Yv+AP9Cb7OJ3H/2JG1HNGz/84klThPVCc=);strokeColor=#000000;strokeWidth=2;spacingTop=-1;spacingBottom=-1;spacingLeft=-1;spacingRight=-1;points=[[0,0.5,0],[1,0.5,0],[0.5,1,0],[0.5,0,0]];labelBackgroundColor=none;rounded=0;html=1;whiteSpace=wrap;" parent="1" vertex="1">
            <mxGeometry x="-432" y="1344" width="100" height="60" as="geometry" />
          </mxCell>
        </UserObject>
        <UserObject label="&lt;div style=&quot;font-size: 1px&quot;&gt;&lt;font style=&quot;font-size:11.29px;font-family:Calibri;color:#000000;direction:ltr;letter-spacing:0px;line-height:120%;opacity:1&quot;&gt;Normalize&lt;br/&gt;&lt;/font&gt;&lt;/div&gt;" tags="Flussdiagramm" id="13">
          <mxCell style="verticalAlign=middle;align=center;overflow=width;vsdxID=30;fillColor=#f2f2f2;gradientColor=none;shape=stencil(nZBLDoAgDERP0z3SIyjew0SURgSD+Lu9kMZoXLhwN9O+tukAlrNpJg1SzDH4QW/URgNYgZTkjA4UkwJUgGXng+6DX1zLfmoymdXo17xh5zmRJ6Q42BWCfc2oJfdAr+Yv+AP9Cb7OJ3H/2JG1HNGz/84klThPVCc=);strokeColor=#000000;strokeWidth=2;spacingTop=-1;spacingBottom=-1;spacingLeft=-1;spacingRight=-1;points=[[0,0.5,0],[1,0.5,0],[0.5,1,0],[0.5,0,0]];labelBackgroundColor=none;rounded=0;html=1;whiteSpace=wrap;" parent="1" vertex="1">
            <mxGeometry x="-259" y="1464" width="100" height="60" as="geometry" />
          </mxCell>
        </UserObject>
        <UserObject label="&lt;div style=&quot;font-size: 1px&quot;&gt;&lt;font style=&quot;font-size:11.29px;font-family:Calibri;color:#000000;direction:ltr;letter-spacing:0px;line-height:120%;opacity:1&quot;&gt;Logarithmic Binning&lt;br/&gt;&lt;/font&gt;&lt;/div&gt;" tags="Flussdiagramm" id="14">
          <mxCell style="verticalAlign=middle;align=center;overflow=width;vsdxID=32;fillColor=#f2f2f2;gradientColor=none;shape=stencil(nZBLDoAgDERP0z3SIyjew0SURgSD+Lu9kMZoXLhwN9O+tukAlrNpJg1SzDH4QW/URgNYgZTkjA4UkwJUgGXng+6DX1zLfmoymdXo17xh5zmRJ6Q42BWCfc2oJfdAr+Yv+AP9Cb7OJ3H/2JG1HNGz/84klThPVCc=);strokeColor=#000000;strokeWidth=2;spacingTop=-1;spacingBottom=-1;spacingLeft=-1;spacingRight=-1;points=[[0,0.5,0],[1,0.5,0],[0.5,1,0],[0.5,0,0]];labelBackgroundColor=none;rounded=0;html=1;whiteSpace=wrap;" parent="1" vertex="1">
            <mxGeometry x="-91" y="1224" width="100" height="60" as="geometry" />
          </mxCell>
        </UserObject>
        <UserObject label="&lt;div style=&quot;font-size: 1px&quot;&gt;&lt;font style=&quot;font-size:11.29px;font-family:Calibri;color:#000000;direction:ltr;letter-spacing:0px;line-height:120%;opacity:1&quot;&gt;Output (csv, plot)&lt;br/&gt;&lt;/font&gt;&lt;/div&gt;" tags="Flussdiagramm" id="15">
          <mxCell style="verticalAlign=middle;align=center;overflow=width;vsdxID=33;fillColor=#f2f2f2;gradientColor=none;shape=stencil(nZBLDoAgDERP0z3SIyjew0SURgSD+Lu9kMZoXLhwN9O+tukAlrNpJg1SzDH4QW/URgNYgZTkjA4UkwJUgGXng+6DX1zLfmoymdXo17xh5zmRJ6Q42BWCfc2oJfdAr+Yv+AP9Cb7OJ3H/2JG1HNGz/84klThPVCc=);strokeColor=#000000;strokeWidth=2;spacingTop=-1;spacingBottom=-1;spacingLeft=-1;spacingRight=-1;points=[[0,0.5,0],[1,0.5,0],[0.5,1,0],[0.5,0,0]];labelBackgroundColor=none;rounded=0;html=1;whiteSpace=wrap;" parent="1" vertex="1">
            <mxGeometry x="-259" y="1584" width="100" height="60" as="geometry" />
          </mxCell>
        </UserObject>
        <UserObject label="&lt;div style=&quot;font-size: 1px&quot;&gt;&lt;font style=&quot;font-size:11.29px;font-family:Calibri;color:#000000;direction:ltr;letter-spacing:0px;line-height:120%;opacity:1&quot;&gt;Translate files&lt;br/&gt;&lt;/font&gt;&lt;/div&gt;" tags="Flussdiagramm" id="16">
          <mxCell style="verticalAlign=middle;align=center;overflow=width;vsdxID=58;fillColor=#f2f2f2;gradientColor=none;shape=stencil(nZBLDoAgDERP0z3SIyjew0SURgSD+Lu9kMZoXLhwN9O+tukAlrNpJg1SzDH4QW/URgNYgZTkjA4UkwJUgGXng+6DX1zLfmoymdXo17xh5zmRJ6Q42BWCfc2oJfdAr+Yv+AP9Cb7OJ3H/2JG1HNGz/84klThPVCc=);strokeColor=#000000;strokeWidth=2;spacingTop=-1;spacingBottom=-1;spacingLeft=-1;spacingRight=-1;points=[[0,0.5,0],[1,0.5,0],[0.5,1,0],[0.5,0,0]];labelBackgroundColor=none;rounded=0;html=1;whiteSpace=wrap;" parent="1" vertex="1">
            <mxGeometry x="-595" y="281" width="100" height="60" as="geometry" />
          </mxCell>
        </UserObject>
        <UserObject label="" tags="Flussdiagramm" id="17">
          <mxCell style="vsdxID=67;fillColor=#f2f2f2;gradientColor=none;shape=stencil(UzV2Ls5ILEhVNTIoLinKz04tz0wpyVA1dlE1MsrMy0gtyiwBslSNXVWNndPyi1LTi/JL81Ig/IJEkEoQKze/DGRCBUSfAUiHkUElhGcK4bpBVOZk5iGpNEVVikeloQHZpsK0YlWLz1QgA+HFtMycHEgIIcujBwlQCBKcxq4A);strokeColor=#000000;strokeWidth=2;spacingTop=-1;spacingBottom=-1;spacingLeft=-1;spacingRight=-1;points=[[0,0.5,0],[1,0.5,0],[0.5,0,0],[0.5,1,0]];labelBackgroundColor=none;rounded=0;html=1;whiteSpace=wrap;" parent="1" vertex="1">
            <mxGeometry x="-259" y="1344" width="100" height="60" as="geometry" />
          </mxCell>
        </UserObject>
        <mxCell id="18" value="&lt;div style=&quot;font-size: 1px&quot;&gt;&lt;font style=&quot;font-size:11.29px;font-family:Calibri;color:#000000;direction:ltr;letter-spacing:0px;line-height:120%;opacity:1&quot;&gt;More than one amp?&lt;br&gt;&lt;/font&gt;&lt;/div&gt;" style="text;vsdxID=67;fillColor=none;gradientColor=none;strokeColor=none;strokeWidth=2;spacingTop=-1;spacingBottom=-1;spacingLeft=-1;spacingRight=-1;points=[[0,0.5,0],[1,0.5,0],[0.5,0,0],[0.5,1,0]];labelBackgroundColor=none;rounded=0;html=1;whiteSpace=wrap;verticalAlign=middle;align=center;overflow=width;;html=1;" parent="17" vertex="1">
          <mxGeometry x="8.33" y="7.5" width="83.33" height="45" as="geometry" />
        </mxCell>
        <UserObject label="" tags="Flussdiagramm" id="19">
          <mxCell style="vsdxID=68;fillColor=#f2f2f2;gradientColor=none;shape=stencil(UzV2Ls5ILEhVNTIoLinKz04tz0wpyVA1dlE1MsrMy0gtyiwBslSNXVWNndPyi1LTi/JL81Ig/IJEkEoQKze/DGRCBUSfAUiHkUElhGcK4bpBVOZk5iGpNEVVikeloQHZpsK0YlWLz1QgA+HFtMycHEgIIcujBwlQCBKcxq4A);strokeColor=#000000;strokeWidth=2;spacingTop=-1;spacingBottom=-1;spacingLeft=-1;spacingRight=-1;points=[[0,0.5,0],[1,0.5,0],[0.5,0,0],[0.5,1,0]];labelBackgroundColor=none;rounded=0;html=1;whiteSpace=wrap;" parent="1" vertex="1">
            <mxGeometry x="-259" y="1224" width="100" height="60" as="geometry" />
          </mxCell>
        </UserObject>
        <mxCell id="20" value="&lt;div style=&quot;font-size: 1px&quot;&gt;&lt;font style=&quot;font-size:11.29px;font-family:Calibri;color:#000000;direction:ltr;letter-spacing:0px;line-height:120%;opacity:1&quot;&gt;Logarithmic binning?&lt;br&gt;&lt;/font&gt;&lt;/div&gt;" style="text;vsdxID=68;fillColor=none;gradientColor=none;strokeColor=none;strokeWidth=2;spacingTop=-1;spacingBottom=-1;spacingLeft=-1;spacingRight=-1;points=[[0,0.5,0],[1,0.5,0],[0.5,0,0],[0.5,1,0]];labelBackgroundColor=none;rounded=0;html=1;whiteSpace=wrap;verticalAlign=middle;align=center;overflow=width;;html=1;" parent="19" vertex="1">
          <mxGeometry x="8.33" y="7.5" width="83.33" height="45" as="geometry" />
        </mxCell>
        <UserObject label="" tags="Flussdiagramm" id="21">
          <mxCell style="vsdxID=75;fillColor=#f2f2f2;gradientColor=none;shape=stencil(UzV2Ls5ILEhVNTIoLinKz04tz0wpyVA1dlE1MsrMy0gtyiwBslSNXVWNndPyi1LTi/JL81Ig/IJEkEoQKze/DGRCBUSfAUiHkUElhGcK4bpBVOZk5iGpNEVVikeloQHZpsK0YlWLz1QgA+HFtMycHEgIIcujBwlQCBKcxq4A);strokeColor=#000000;strokeWidth=2;spacingTop=-1;spacingBottom=-1;spacingLeft=-1;spacingRight=-1;points=[[0,0.5,0],[1,0.5,0],[0.5,0,0],[0.5,1,0]];labelBackgroundColor=none;rounded=0;html=1;whiteSpace=wrap;" parent="1" vertex="1">
            <mxGeometry x="-260" y="630" width="100" height="60" as="geometry" />
          </mxCell>
        </UserObject>
        <mxCell id="22" value="&lt;div style=&quot;font-size: 1px&quot;&gt;&lt;font style=&quot;font-size:11.29px;font-family:Calibri;color:#000000;direction:ltr;letter-spacing:0px;line-height:120%;opacity:1&quot;&gt;Extrapolation?&lt;br&gt;&lt;/font&gt;&lt;/div&gt;" style="text;vsdxID=75;fillColor=none;gradientColor=none;strokeColor=none;strokeWidth=2;spacingTop=-1;spacingBottom=-1;spacingLeft=-1;spacingRight=-1;points=[[0,0.5,0],[1,0.5,0],[0.5,0,0],[0.5,1,0]];labelBackgroundColor=none;rounded=0;html=1;whiteSpace=wrap;verticalAlign=middle;align=center;overflow=width;;html=1;" parent="21" vertex="1">
          <mxGeometry x="8.33" y="7.5" width="83.33" height="45" as="geometry" />
        </mxCell>
        <UserObject label="" tags="Verbinder" id="93">
          <mxCell style="vsdxID=76;edgeStyle=none;startArrow=none;endArrow=block;startSize=5;endSize=5;strokeWidth=2;strokeColor=#000000;spacingTop=0;spacingBottom=0;spacingLeft=0;spacingRight=0;verticalAlign=middle;html=1;labelBackgroundColor=#ffffff;rounded=0;" parent="1" edge="1">
            <mxGeometry relative="1" as="geometry">
              <mxPoint y="111" as="offset" />
              <Array as="points" />
              <mxPoint x="-160" y="660" as="sourcePoint" />
              <mxPoint x="-160" y="660" as="targetPoint" />
            </mxGeometry>
          </mxCell>
        </UserObject>
        <UserObject label="" tags="Flussdiagramm" id="23">
          <mxCell style="vsdxID=84;fillColor=#f2f2f2;gradientColor=none;shape=stencil(UzV2Ls5ILEhVNTIoLinKz04tz0wpyVA1dlE1MsrMy0gtyiwBslSNXVWNndPyi1LTi/JL81Ig/IJEkEoQKze/DGRCBUSfAUiHkUElhGcK4bpBVOZk5iGpNEVVikeloQHZpsK0YlWLz1QgA+HFtMycHEgIIcujBwlQCBKcxq4A);strokeColor=#000000;strokeWidth=2;spacingTop=-1;spacingBottom=-1;spacingLeft=-1;spacingRight=-1;points=[[0,0.5,0],[1,0.5,0],[0.5,0,0],[0.5,1,0]];labelBackgroundColor=none;rounded=0;html=1;whiteSpace=wrap;" parent="1" vertex="1">
            <mxGeometry x="-257" y="157" width="100" height="64" as="geometry" />
          </mxCell>
        </UserObject>
        <mxCell id="24" value="&lt;div style=&quot;font-size: 1px&quot;&gt;&lt;font style=&quot;font-size:11.29px;font-family:Calibri;color:#000000;direction:ltr;letter-spacing:0px;line-height:120%;opacity:1&quot;&gt;Scale x-axis?&lt;br&gt;&lt;/font&gt;&lt;/div&gt;" style="text;vsdxID=84;fillColor=none;gradientColor=none;strokeColor=none;strokeWidth=2;spacingTop=-1;spacingBottom=-1;spacingLeft=-1;spacingRight=-1;points=[[0,0.5,0],[1,0.5,0],[0.5,0,0],[0.5,1,0]];labelBackgroundColor=none;rounded=0;html=1;whiteSpace=wrap;verticalAlign=middle;align=center;overflow=width;;html=1;" parent="23" vertex="1">
          <mxGeometry x="8.33" y="8" width="83.33" height="48" as="geometry" />
        </mxCell>
        <UserObject label="" tags="Flussdiagramm" id="25">
          <mxCell style="vsdxID=94;fillColor=#f2f2f2;gradientColor=none;shape=stencil(UzV2Ls5ILEhVNTIoLinKz04tz0wpyVA1dlE1MsrMy0gtyiwBslSNXVWNndPyi1LTi/JL81Ig/IJEkEoQKze/DGRCBUSfAUiHkUElhGcK4bpBVOZk5iGpNEVVikeloQHZpsK0YlWLz1QgA+HFtMycHEgIIcujBwlQCBKcxq4A);strokeColor=#000000;strokeWidth=2;spacingTop=-1;spacingBottom=-1;spacingLeft=-1;spacingRight=-1;points=[[0,0.5,0],[1,0.5,0],[0.5,0,0],[0.5,1,0]];labelBackgroundColor=none;rounded=0;html=1;whiteSpace=wrap;" parent="1" vertex="1">
            <mxGeometry x="-432" y="750" width="100" height="60" as="geometry" />
          </mxCell>
        </UserObject>
        <mxCell id="26" value="&lt;div style=&quot;font-size: 1px&quot;&gt;&lt;font style=&quot;font-size:11.29px;font-family:Calibri;color:#000000;direction:ltr;letter-spacing:0px;line-height:120%;opacity:1&quot;&gt;f(y), d(y)?&lt;br/&gt;&lt;/font&gt;&lt;/div&gt;" style="text;vsdxID=94;fillColor=none;gradientColor=none;strokeColor=none;strokeWidth=2;spacingTop=-1;spacingBottom=-1;spacingLeft=-1;spacingRight=-1;points=[[0,0.5,0],[1,0.5,0],[0.5,0,0],[0.5,1,0]];labelBackgroundColor=none;rounded=0;html=1;whiteSpace=wrap;verticalAlign=middle;align=center;overflow=width;;html=1;" parent="25" vertex="1">
          <mxGeometry x="8.33" y="7.5" width="83.33" height="45" as="geometry" />
        </mxCell>
        <UserObject label="" tags="Flussdiagramm" id="27">
          <mxCell style="vsdxID=99;fillColor=#f2f2f2;gradientColor=none;shape=stencil(UzV2Ls5ILEhVNTIoLinKz04tz0wpyVA1dlE1MsrMy0gtyiwBslSNXVWNndPyi1LTi/JL81Ig/IJEkEoQKze/DGRCBUSfAUiHkUElhGcK4bpBVOZk5iGpNEVVikeloQHZpsK0YlWLz1QgA+HFtMycHEgIIcujBwlQCBKcxq4A);strokeColor=#000000;strokeWidth=2;spacingTop=-1;spacingBottom=-1;spacingLeft=-1;spacingRight=-1;points=[[0,0.5,0],[1,0.5,0],[0.5,0,0],[0.5,1,0]];labelBackgroundColor=none;rounded=0;html=1;whiteSpace=wrap;" parent="1" vertex="1">
            <mxGeometry x="-432" y="988" width="100" height="60" as="geometry" />
          </mxCell>
        </UserObject>
        <mxCell id="28" value="&lt;div style=&quot;font-size: 1px&quot;&gt;&lt;font style=&quot;font-size:11.29px;font-family:Calibri;color:#000000;direction:ltr;letter-spacing:0px;line-height:120%;opacity:1&quot;&gt;yf(y), yd(y)?&lt;br/&gt;&lt;/font&gt;&lt;/div&gt;" style="text;vsdxID=99;fillColor=none;gradientColor=none;strokeColor=none;strokeWidth=2;spacingTop=-1;spacingBottom=-1;spacingLeft=-1;spacingRight=-1;points=[[0,0.5,0],[1,0.5,0],[0.5,0,0],[0.5,1,0]];labelBackgroundColor=none;rounded=0;html=1;whiteSpace=wrap;verticalAlign=middle;align=center;overflow=width;;html=1;" parent="27" vertex="1">
          <mxGeometry x="8.33" y="7.5" width="83.33" height="45" as="geometry" />
        </mxCell>
        <UserObject label="" tags="Flussdiagramm" id="29">
          <mxCell style="vsdxID=107;fillColor=#f2f2f2;gradientColor=none;shape=stencil(UzV2Ls5ILEhVNTIoLinKz04tz0wpyVA1dlE1MsrMy0gtyiwBslSNXVWNndPyi1LTi/JL81Ig/IJEkEoQKze/DGRCBUSfAUiHkUElhGcK4bpBVOZk5iGpNEVVikeloQHZpsK0YlWLz1QgA+HFtMycHEgIIcujBwlQCBKcxq4A);strokeColor=#000000;strokeWidth=2;spacingTop=-1;spacingBottom=-1;spacingLeft=-1;spacingRight=-1;points=[[0,0.5,0],[1,0.5,0],[0.5,0,0],[0.5,1,0]];labelBackgroundColor=none;rounded=0;html=1;whiteSpace=wrap;" parent="1" vertex="1">
            <mxGeometry x="-91" y="988" width="100" height="60" as="geometry" />
          </mxCell>
        </UserObject>
        <mxCell id="30" value="&lt;div style=&quot;font-size: 1px&quot;&gt;&lt;font style=&quot;font-size:11.29px;font-family:Calibri;color:#000000;direction:ltr;letter-spacing:0px;line-height:120%;opacity:1&quot;&gt;d(y)?&lt;br/&gt;&lt;/font&gt;&lt;/div&gt;" style="text;vsdxID=107;fillColor=none;gradientColor=none;strokeColor=none;strokeWidth=2;spacingTop=-1;spacingBottom=-1;spacingLeft=-1;spacingRight=-1;points=[[0,0.5,0],[1,0.5,0],[0.5,0,0],[0.5,1,0]];labelBackgroundColor=none;rounded=0;html=1;whiteSpace=wrap;verticalAlign=middle;align=center;overflow=width;;html=1;" parent="29" vertex="1">
          <mxGeometry x="8.33" y="7.5" width="83.33" height="45" as="geometry" />
        </mxCell>
        <UserObject label="" tags="Flussdiagramm" id="31">
          <mxCell style="vsdxID=114;fillColor=#f2f2f2;gradientColor=none;shape=stencil(UzV2Ls5ILEhVNTIoLinKz04tz0wpyVA1dlE1MsrMy0gtyiwBslSNXVWNndPyi1LTi/JL81Ig/IJEkEoQKze/DGRCBUSfAUiHkUElhGcK4bpBVOZk5iGpNEVVikeloQHZpsK0YlWLz1QgA+HFtMycHEgIIcujBwlQCBKcxq4A);strokeColor=#000000;strokeWidth=2;spacingTop=-1;spacingBottom=-1;spacingLeft=-1;spacingRight=-1;points=[[0,0.5,0],[1,0.5,0],[0.5,0,0],[0.5,1,0]];labelBackgroundColor=none;rounded=0;html=1;whiteSpace=wrap;" parent="1" vertex="1">
            <mxGeometry x="-259" y="1106" width="100" height="60" as="geometry" />
          </mxCell>
        </UserObject>
        <mxCell id="32" value="&lt;div style=&quot;font-size: 1px&quot;&gt;&lt;font style=&quot;font-size:11.29px;font-family:Calibri;color:#000000;direction:ltr;letter-spacing:0px;line-height:120%;opacity:1&quot;&gt;yf(y), yd(y)?&lt;br/&gt;&lt;/font&gt;&lt;/div&gt;" style="text;vsdxID=114;fillColor=none;gradientColor=none;strokeColor=none;strokeWidth=2;spacingTop=-1;spacingBottom=-1;spacingLeft=-1;spacingRight=-1;points=[[0,0.5,0],[1,0.5,0],[0.5,0,0],[0.5,1,0]];labelBackgroundColor=none;rounded=0;html=1;whiteSpace=wrap;verticalAlign=middle;align=center;overflow=width;;html=1;" parent="31" vertex="1">
          <mxGeometry x="8.33" y="7.5" width="83.33" height="45" as="geometry" />
        </mxCell>
        <UserObject label="&lt;div style=&quot;font-size: 1px&quot;&gt;&lt;font style=&quot;font-size:11.29px;font-family:Calibri;color:#000000;direction:ltr;letter-spacing:0px;line-height:120%;opacity:1&quot;&gt;Output (csv, plot)&lt;br/&gt;&lt;/font&gt;&lt;/div&gt;" tags="Flussdiagramm" id="33">
          <mxCell style="verticalAlign=middle;align=center;overflow=width;vsdxID=122;fillColor=#f2f2f2;gradientColor=none;shape=stencil(nZBLDoAgDERP0z3SIyjew0SURgSD+Lu9kMZoXLhwN9O+tukAlrNpJg1SzDH4QW/URgNYgZTkjA4UkwJUgGXng+6DX1zLfmoymdXo17xh5zmRJ6Q42BWCfc2oJfdAr+Yv+AP9Cb7OJ3H/2JG1HNGz/84klThPVCc=);strokeColor=#000000;strokeWidth=2;spacingTop=-1;spacingBottom=-1;spacingLeft=-1;spacingRight=-1;points=[[0,0.5,0],[1,0.5,0],[0.5,1,0],[0.5,0,0]];labelBackgroundColor=none;rounded=0;html=1;whiteSpace=wrap;" parent="1" vertex="1">
            <mxGeometry x="-91" y="281" width="100" height="60" as="geometry" />
          </mxCell>
        </UserObject>
        <UserObject label="" tags="Flussdiagramm" id="34">
          <mxCell style="vsdxID=123;fillColor=#f2f2f2;gradientColor=none;shape=stencil(UzV2Ls5ILEhVNTIoLinKz04tz0wpyVA1dlE1MsrMy0gtyiwBslSNXVWNndPyi1LTi/JL81Ig/IJEkEoQKze/DGRCBUSfAUiHkUElhGcK4bpBVOZk5iGpNEVVikeloQHZpsK0YlWLz1QgA+HFtMycHEgIIcujBwlQCBKcxq4A);strokeColor=#000000;strokeWidth=2;spacingTop=-1;spacingBottom=-1;spacingLeft=-1;spacingRight=-1;points=[[0,0.5,0],[1,0.5,0],[0.5,0,0],[0.5,1,0]];labelBackgroundColor=none;rounded=0;html=1;whiteSpace=wrap;" parent="1" vertex="1">
            <mxGeometry x="-595" y="159" width="100" height="60" as="geometry" />
          </mxCell>
        </UserObject>
        <mxCell id="35" value="&lt;div style=&quot;font-size: 1px&quot;&gt;&lt;font style=&quot;font-size:11.29px;font-family:Calibri;color:#000000;direction:ltr;letter-spacing:0px;line-height:120%;opacity:1&quot;&gt;Right data format?&lt;br/&gt;&lt;/font&gt;&lt;/div&gt;" style="text;vsdxID=123;fillColor=none;gradientColor=none;strokeColor=none;strokeWidth=2;spacingTop=-1;spacingBottom=-1;spacingLeft=-1;spacingRight=-1;points=[[0,0.5,0],[1,0.5,0],[0.5,0,0],[0.5,1,0]];labelBackgroundColor=none;rounded=0;html=1;whiteSpace=wrap;verticalAlign=middle;align=center;overflow=width;;html=1;" parent="34" vertex="1">
          <mxGeometry x="8.33" y="7.5" width="83.33" height="45" as="geometry" />
        </mxCell>
        <UserObject label="" tags="Flussdiagramm" id="36">
          <mxCell style="vsdxID=127;fillColor=#fff2cc;shape=stencil(UzV2Ls5ILEhVNTIoLinKz04tz0wpyVA1dlE1MsrMy0gtyiwBslSNXVWNndPyi1LTi/JL81Ig/IJEkEoQKze/DGRCBUSfAUiHkUElhGcK4bpBVOZk5iGpNEVVikeloQHZpsK0YlWLz1QgA+HFtMycHEgIIcujBwlQCBKcxq4A);strokeColor=#d6b656;strokeWidth=2;spacingTop=-1;spacingBottom=-1;spacingLeft=-1;spacingRight=-1;points=[[0,0.5,0],[1,0.5,0],[0.5,0,0],[0.5,1,0]];labelBackgroundColor=none;rounded=0;html=1;whiteSpace=wrap;" parent="1" vertex="1">
            <mxGeometry x="-760" y="550" width="100" height="60" as="geometry" />
          </mxCell>
        </UserObject>
        <mxCell id="37" value="&lt;div style=&quot;font-size: 1px&quot;&gt;&lt;font style=&quot;font-size:11.29px;font-family:Calibri;color:#000000;direction:ltr;letter-spacing:0px;line-height:120%;opacity:1&quot;&gt;decision&lt;br/&gt;&lt;/font&gt;&lt;/div&gt;" style="text;vsdxID=127;fillColor=none;gradientColor=none;strokeColor=none;strokeWidth=2;spacingTop=-1;spacingBottom=-1;spacingLeft=-1;spacingRight=-1;points=[[0,0.5,0],[1,0.5,0],[0.5,0,0],[0.5,1,0]];labelBackgroundColor=none;rounded=0;html=1;whiteSpace=wrap;verticalAlign=middle;align=center;overflow=width;;html=1;" parent="36" vertex="1">
          <mxGeometry x="8.33" y="7.5" width="83.33" height="45" as="geometry" />
        </mxCell>
        <UserObject label="" tags="Flussdiagramm" id="38">
          <mxCell style="vsdxID=132;fillColor=#f2f2f2;gradientColor=none;shape=stencil(UzV2Ls5ILEhVNTIoLinKz04tz0wpyVA1dlE1MsrMy0gtyiwBslSNXVWNndPyi1LTi/JL81Ig/IJEkEoQKze/DGRCBUSfAUiHkUElhGcK4bpBVOZk5iGpNEVVikeloQHZpsK0YlWLz1QgA+HFtMycHEgIIcujBwlQCBKcxq4A);strokeColor=#000000;strokeWidth=2;spacingTop=-1;spacingBottom=-1;spacingLeft=-1;spacingRight=-1;points=[[0,0.5,0],[1,0.5,0],[0.5,0,0],[0.5,1,0]];labelBackgroundColor=none;rounded=0;html=1;whiteSpace=wrap;" parent="1" vertex="1">
            <mxGeometry x="-257" y="401" width="100" height="60" as="geometry" />
          </mxCell>
        </UserObject>
        <mxCell id="39" value="&lt;div style=&quot;font-size: 1px&quot;&gt;&lt;font style=&quot;font-size:11.29px;font-family:Calibri;color:#000000;direction:ltr;letter-spacing:0px;line-height:120%;opacity:1&quot;&gt;Distribution functions?&lt;br/&gt;&lt;/font&gt;&lt;/div&gt;" style="text;vsdxID=132;fillColor=none;gradientColor=none;strokeColor=none;strokeWidth=2;spacingTop=-1;spacingBottom=-1;spacingLeft=-1;spacingRight=-1;points=[[0,0.5,0],[1,0.5,0],[0.5,0,0],[0.5,1,0]];labelBackgroundColor=none;rounded=0;html=1;whiteSpace=wrap;verticalAlign=middle;align=center;overflow=width;;html=1;" parent="38" vertex="1">
          <mxGeometry x="8.33" y="7.5" width="83.33" height="45" as="geometry" />
        </mxCell>
        <UserObject label="&lt;div style=&quot;font-size: 1px&quot;&gt;&lt;font style=&quot;font-size:11.29px;font-family:Calibri;color:#000000;direction:ltr;letter-spacing:0px;line-height:120%;opacity:1&quot;&gt;Noise cutoff&lt;br/&gt;&lt;/font&gt;&lt;/div&gt;" tags="Flussdiagramm" id="40">
          <mxCell style="verticalAlign=middle;align=center;overflow=width;vsdxID=136;fillColor=#f2f2f2;gradientColor=none;shape=stencil(nZBLDoAgDERP0z3SIyjew0SURgSD+Lu9kMZoXLhwN9O+tukAlrNpJg1SzDH4QW/URgNYgZTkjA4UkwJUgGXng+6DX1zLfmoymdXo17xh5zmRJ6Q42BWCfc2oJfdAr+Yv+AP9Cb7OJ3H/2JG1HNGz/84klThPVCc=);strokeColor=#000000;strokeWidth=2;spacingTop=-1;spacingBottom=-1;spacingLeft=-1;spacingRight=-1;points=[[0,0.5,0],[1,0.5,0],[0.5,1,0],[0.5,0,0]];labelBackgroundColor=none;rounded=0;html=1;whiteSpace=wrap;" parent="1" vertex="1">
            <mxGeometry x="-91" y="507" width="100" height="60" as="geometry" />
          </mxCell>
        </UserObject>
        <UserObject label="" tags="Flussdiagramm" id="41">
          <mxCell style="vsdxID=137;fillColor=#f2f2f2;gradientColor=none;shape=stencil(UzV2Ls5ILEhVNTIoLinKz04tz0wpyVA1dlE1MsrMy0gtyiwBslSNXVWNndPyi1LTi/JL81Ig/IJEkEoQKze/DGRCBUSfAUiHkUElhGcK4bpBVOZk5iGpNEVVikeloQHZpsK0YlWLz1QgA+HFtMycHEgIIcujBwlQCBKcxq4A);strokeColor=#000000;strokeWidth=2;spacingTop=-1;spacingBottom=-1;spacingLeft=-1;spacingRight=-1;points=[[0,0.5,0],[1,0.5,0],[0.5,0,0],[0.5,1,0]];labelBackgroundColor=none;rounded=0;html=1;whiteSpace=wrap;" parent="1" vertex="1">
            <mxGeometry x="-260" y="507" width="100" height="60" as="geometry" />
          </mxCell>
        </UserObject>
        <mxCell id="42" value="&lt;div style=&quot;font-size: 1px&quot;&gt;&lt;font style=&quot;font-size:11.29px;font-family:Calibri;color:#000000;direction:ltr;letter-spacing:0px;line-height:120%;opacity:1&quot;&gt;Noise cutoff?&lt;br/&gt;&lt;/font&gt;&lt;/div&gt;" style="text;vsdxID=137;fillColor=none;gradientColor=none;strokeColor=none;strokeWidth=2;spacingTop=-1;spacingBottom=-1;spacingLeft=-1;spacingRight=-1;points=[[0,0.5,0],[1,0.5,0],[0.5,0,0],[0.5,1,0]];labelBackgroundColor=none;rounded=0;html=1;whiteSpace=wrap;verticalAlign=middle;align=center;overflow=width;;html=1;" parent="41" vertex="1">
          <mxGeometry x="8.33" y="7.5" width="83.33" height="45" as="geometry" />
        </mxCell>
        <UserObject label="&lt;div style=&quot;font-size: 1px&quot;&gt;&lt;font style=&quot;font-size:16.93px;font-family:Calibri;color:#000000;direction:ltr;letter-spacing:0px;line-height:120%;opacity:1&quot;&gt;Example workflow for single spectrum&lt;br&gt;&lt;/font&gt;&lt;/div&gt;" tags="Background" id="43">
          <mxCell style="verticalAlign=middle;align=center;overflow=width;vsdxID=141;fillColor=none;gradientColor=none;shape=stencil(nZBLDoAgDERP0z3SIyjew0SURgSD+Lu9kMZoXLhwN9O+tukAlrNpJg1SzDH4QW/URgNYgZTkjA4UkwJUgGXng+6DX1zLfmoymdXo17xh5zmRJ6Q42BWCfc2oJfdAr+Yv+AP9Cb7OJ3H/2JG1HNGz/84klThPVCc=);strokeColor=none;points=[];labelBackgroundColor=none;rounded=0;html=1;whiteSpace=wrap;" parent="1" vertex="1">
            <mxGeometry x="-540" y="94" width="300" height="39" as="geometry" />
          </mxCell>
        </UserObject>
        <UserObject label="&lt;div style=&quot;font-size: 1px&quot;&gt;&lt;font style=&quot;font-size:11.29px;font-family:Calibri;color:#000000;direction:ltr;letter-spacing:0px;line-height:120%;opacity:1&quot;&gt;Place files in analysis folder&lt;br/&gt;&lt;/font&gt;&lt;/div&gt;" tags="Flussdiagramm" id="44">
          <mxCell style="verticalAlign=middle;align=center;overflow=width;vsdxID=143;fillColor=#f2f2f2;gradientColor=none;shape=stencil(nZBLDoAgDERP0z3SIyjew0SURgSD+Lu9kMZoXLhwN9O+tukAlrNpJg1SzDH4QW/URgNYgZTkjA4UkwJUgGXng+6DX1zLfmoymdXo17xh5zmRJ6Q42BWCfc2oJfdAr+Yv+AP9Cb7OJ3H/2JG1HNGz/84klThPVCc=);strokeColor=#000000;strokeWidth=2;spacingTop=-1;spacingBottom=-1;spacingLeft=-1;spacingRight=-1;points=[[0,0.5,0],[1,0.5,0],[0.5,1,0],[0.5,0,0]];labelBackgroundColor=none;rounded=0;html=1;whiteSpace=wrap;" parent="1" vertex="1">
            <mxGeometry x="-764" y="159" width="100" height="60" as="geometry" />
          </mxCell>
        </UserObject>
        <UserObject label="&lt;div style=&quot;font-size: 1px&quot;&gt;&lt;font style=&quot;font-size:11.29px;font-family:Calibri;color:#000000;direction:ltr;letter-spacing:0px;line-height:120%;opacity:1&quot;&gt;action&lt;br&gt;&lt;/font&gt;&lt;/div&gt;" tags="Flussdiagramm" id="45">
          <mxCell style="verticalAlign=middle;align=center;overflow=width;vsdxID=157;fillColor=#fff2cc;shape=stencil(nZBLDoAgDERP0z3SIyjew0SURgSD+Lu9kMZoXLhwN9O+tukAlrNpJg1SzDH4QW/URgNYgZTkjA4UkwJUgGXng+6DX1zLfmoymdXo17xh5zmRJ6Q42BWCfc2oJfdAr+Yv+AP9Cb7OJ3H/2JG1HNGz/84klThPVCc=);strokeColor=#d6b656;strokeWidth=2;spacingTop=-1;spacingBottom=-1;spacingLeft=-1;spacingRight=-1;points=[[0,0.5,0],[1,0.5,0],[0.5,1,0],[0.5,0,0]];labelBackgroundColor=none;rounded=0;html=1;whiteSpace=wrap;" parent="1" vertex="1">
            <mxGeometry x="-760" y="647" width="100" height="60" as="geometry" />
          </mxCell>
        </UserObject>
        <UserObject label="" tags="Flussdiagramm" id="47">
          <mxCell style="vsdxID=163;fillColor=#f2f2f2;gradientColor=none;shape=stencil(UzV2Ls5ILEhVNTIoLinKz04tz0wpyVA1dlE1MsrMy0gtyiwBslSNXVWNndPyi1LTi/JL81Ig/IJEkEoQKze/DGRCBUSfAUiHkUElhGcK4bpBVOZk5iGpNEVVikeloQHZpsK0YlWLz1QgA+HFtMycHEgIIcujBwlQCBKcxq4A);strokeColor=#000000;strokeWidth=2;spacingTop=-1;spacingBottom=-1;spacingLeft=-1;spacingRight=-1;points=[[0,0.5,0],[1,0.5,0],[0.5,0,0],[0.5,1,0]];labelBackgroundColor=none;rounded=0;html=1;whiteSpace=wrap;" parent="1" vertex="1">
            <mxGeometry x="-595" y="387" width="100" height="60" as="geometry" />
          </mxCell>
        </UserObject>
        <mxCell id="48" value="&lt;div style=&quot;font-size: 1px&quot;&gt;&lt;p style=&quot;text-align:center;margin-left:0;margin-right:0;margin-top:0px;margin-bottom:0px;text-indent:0;vertical-align:middle;direction:ltr;&quot;&gt;&lt;font style=&quot;font-size:11.29px;font-family:Calibri;color:#000000;direction:ltr;letter-spacing:0px;line-height:120%;opacity:1&quot;&gt;Is there a linearizaiton?&lt;br&gt;&lt;/font&gt;&lt;/p&gt;&lt;/div&gt;" style="text;vsdxID=163;fillColor=none;gradientColor=none;strokeColor=none;strokeWidth=2;spacingTop=-1;spacingBottom=-1;spacingLeft=-1;spacingRight=-1;points=[[0,0.5,0],[1,0.5,0],[0.5,0,0],[0.5,1,0]];labelBackgroundColor=none;rounded=0;html=1;whiteSpace=wrap;verticalAlign=middle;align=center;overflow=width;;html=1;" parent="47" vertex="1">
          <mxGeometry x="8.33" y="7.5" width="83.33" height="45" as="geometry" />
        </mxCell>
        <UserObject label="&lt;div style=&quot;font-size: 1px&quot;&gt;&lt;p style=&quot;text-align:center;margin-left:0;margin-right:0;margin-top:0px;margin-bottom:0px;text-indent:0;vertical-align:middle;direction:ltr;&quot;&gt;&lt;font style=&quot;font-size:11.29px;font-family:Calibri;color:#000000;direction:ltr;letter-spacing:0px;line-height:120%;opacity:1&quot;&gt;Generate&lt;/font&gt;&lt;/p&gt;&lt;p style=&quot;text-align:center;margin-left:0;margin-right:0;margin-top:0px;margin-bottom:0px;text-indent:0;vertical-align:middle;direction:ltr;&quot;&gt;&lt;font style=&quot;font-size:11.29px;font-family:Calibri;color:#000000;direction:ltr;letter-spacing:0px;line-height:120%;opacity:1&quot;&gt;Linearization file&lt;br&gt;&lt;/font&gt;&lt;/p&gt;&lt;/div&gt;" tags="Flussdiagramm" id="49">
          <mxCell style="verticalAlign=middle;align=center;overflow=width;vsdxID=166;fillColor=#f2f2f2;gradientColor=none;shape=stencil(nZBLDoAgDERP0z3SIyjew0SURgSD+Lu9kMZoXLhwN9O+tukAlrNpJg1SzDH4QW/URgNYgZTkjA4UkwJUgGXng+6DX1zLfmoymdXo17xh5zmRJ6Q42BWCfc2oJfdAr+Yv+AP9Cb7OJ3H/2JG1HNGz/84klThPVCc=);strokeColor=#000000;strokeWidth=2;spacingTop=-1;spacingBottom=-1;spacingLeft=-1;spacingRight=-1;points=[[0,0.5,0],[1,0.5,0],[0.5,1,0],[0.5,0,0]];labelBackgroundColor=none;rounded=0;html=1;whiteSpace=wrap;" parent="1" vertex="1">
            <mxGeometry x="-764" y="387" width="100" height="60" as="geometry" />
          </mxCell>
        </UserObject>
        <UserObject label="" tags="Verbinder" id="50">
          <mxCell style="vsdxID=168;edgeStyle=none;startArrow=none;endArrow=block;startSize=5;endSize=5;strokeWidth=2;strokeColor=#000000;spacingTop=0;spacingBottom=0;spacingLeft=0;spacingRight=0;verticalAlign=middle;html=1;labelBackgroundColor=#ffffff;rounded=0;exitX=0.5;exitY=0;exitDx=0;exitDy=0;exitPerimeter=0;entryX=0;entryY=0.5;entryDx=0;entryDy=0;entryPerimeter=0;" parent="1" source="49" edge="1">
            <mxGeometry relative="1" as="geometry">
              <mxPoint x="-1" as="offset" />
              <Array as="points">
                <mxPoint x="-714" y="314.27" />
              </Array>
              <mxPoint x="-595" y="314" as="targetPoint" />
            </mxGeometry>
          </mxCell>
        </UserObject>
        <UserObject label="&lt;div style=&quot;font-size: 1px&quot;&gt;&lt;font style=&quot;font-size:11.29px;font-family:Calibri;color:#000000;direction:ltr;letter-spacing:0px;line-height:120%;opacity:1&quot;&gt;No&lt;br/&gt;&lt;/font&gt;&lt;/div&gt;" tags="Verbinder" id="51">
          <mxCell style="vsdxID=167;edgeStyle=none;dashed=1;dashPattern=2.00 2.00;startArrow=none;endArrow=block;startSize=5;endSize=5;strokeWidth=2;strokeColor=#000000;spacingTop=0;spacingBottom=0;spacingLeft=0;spacingRight=0;verticalAlign=middle;html=1;labelBackgroundColor=#ffffff;rounded=0;align=center;exitX=0;exitY=0.5;exitDx=0;exitDy=0;exitPerimeter=0;entryX=1;entryY=0.5;entryDx=0;entryDy=0;entryPerimeter=0;" parent="1" source="47" target="49" edge="1">
            <mxGeometry relative="1" as="geometry">
              <mxPoint x="-1" as="offset" />
              <Array as="points">
                <mxPoint x="-615.42" y="417" />
                <mxPoint x="-615.42" y="416.99" />
              </Array>
            </mxGeometry>
          </mxCell>
        </UserObject>
        <UserObject label="&lt;div style=&quot;font-size: 1px&quot;&gt;&lt;font style=&quot;font-size:11.29px;font-family:Calibri;color:#000000;direction:ltr;letter-spacing:0px;line-height:120%;opacity:1&quot;&gt;Yes&lt;br/&gt;&lt;/font&gt;&lt;/div&gt;" tags="Verbinder" id="52">
          <mxCell style="vsdxID=165;edgeStyle=none;dashed=1;dashPattern=2.00 2.00;startArrow=none;endArrow=block;startSize=5;endSize=5;strokeWidth=2;strokeColor=#000000;spacingTop=0;spacingBottom=0;spacingLeft=0;spacingRight=0;verticalAlign=middle;html=1;labelBackgroundColor=#ffffff;rounded=0;align=center;exitX=0.5;exitY=0;exitDx=0;exitDy=0;exitPerimeter=0;entryX=0.5;entryY=1;entryDx=0;entryDy=0;entryPerimeter=0;" parent="1" source="47" edge="1">
            <mxGeometry relative="1" as="geometry">
              <mxPoint x="10" y="-1" as="offset" />
              <Array as="points" />
              <mxPoint x="-545" y="344" as="targetPoint" />
            </mxGeometry>
          </mxCell>
        </UserObject>
        <UserObject label="&lt;div style=&quot;font-size: 1px&quot;&gt;&lt;font style=&quot;font-size:11.29px;font-family:Calibri;color:#000000;direction:ltr;letter-spacing:0px;line-height:120%;opacity:1&quot;&gt;Yes&lt;br/&gt;&lt;/font&gt;&lt;/div&gt;" tags="Verbinder" id="54">
          <mxCell style="vsdxID=160;edgeStyle=none;dashed=1;dashPattern=2.00 2.00;startArrow=none;endArrow=block;startSize=5;endSize=5;strokeWidth=2;strokeColor=#000000;spacingTop=0;spacingBottom=0;spacingLeft=0;spacingRight=0;verticalAlign=middle;html=1;labelBackgroundColor=#ffffff;rounded=0;align=center;exitX=0.5;exitY=1;exitDx=0;exitDy=0;exitPerimeter=0;entryX=0.5;entryY=0;entryDx=0;entryDy=0;entryPerimeter=0;" parent="1" source="23" target="4" edge="1">
            <mxGeometry relative="1" as="geometry">
              <mxPoint x="-10" y="-1" as="offset" />
              <Array as="points">
                <mxPoint x="-207" y="241.42" />
                <mxPoint x="-207.01" y="241.42" />
              </Array>
            </mxGeometry>
          </mxCell>
        </UserObject>
        <mxCell id="55" parent="1" vertex="1">
          <mxGeometry x="-552" y="1018" as="geometry" />
        </mxCell>
        <UserObject label="&lt;div style=&quot;font-size: 1px&quot;&gt;&lt;font style=&quot;font-size:11.29px;font-family:Calibri;color:#000000;direction:ltr;letter-spacing:0px;line-height:120%;opacity:1&quot;&gt;No&lt;br/&gt;&lt;/font&gt;&lt;/div&gt;" tags="Verbinder" id="56">
          <mxCell style="vsdxID=159;edgeStyle=none;dashed=1;dashPattern=2.00 2.00;startArrow=none;endArrow=block;startSize=5;endSize=5;strokeWidth=2;strokeColor=#000000;spacingTop=0;spacingBottom=0;spacingLeft=0;spacingRight=0;verticalAlign=middle;html=1;labelBackgroundColor=#ffffff;rounded=0;align=center;exitX=0;exitY=0.5;exitDx=0;exitDy=0;exitPerimeter=0;" parent="1" source="27" target="55" edge="1">
            <mxGeometry relative="1" as="geometry">
              <mxPoint as="offset" />
              <Array as="points" />
            </mxGeometry>
          </mxCell>
        </UserObject>
        <mxCell id="57" parent="1" vertex="1">
          <mxGeometry x="-231" y="1237" as="geometry" />
        </mxCell>
        <UserObject label="" tags="Verbinder" id="58">
          <mxCell style="vsdxID=148;edgeStyle=none;startArrow=none;endArrow=block;startSize=5;endSize=5;strokeWidth=2;strokeColor=#000000;spacingTop=0;spacingBottom=0;spacingLeft=0;spacingRight=0;verticalAlign=middle;html=1;labelBackgroundColor=#ffffff;rounded=0;exitX=0.5;exitY=1;exitDx=0;exitDy=0;exitPerimeter=0;" parent="1" source="9" target="57" edge="1">
            <mxGeometry relative="1" as="geometry">
              <mxPoint x="-1" y="-1" as="offset" />
              <Array as="points" />
            </mxGeometry>
          </mxCell>
        </UserObject>
        <UserObject label="" tags="Verbinder" id="59">
          <mxCell style="vsdxID=144;edgeStyle=none;startArrow=none;endArrow=block;startSize=5;endSize=5;strokeWidth=2;strokeColor=#000000;spacingTop=0;spacingBottom=0;spacingLeft=0;spacingRight=0;verticalAlign=middle;html=1;labelBackgroundColor=#ffffff;rounded=0;exitX=1;exitY=0.5;exitDx=0;exitDy=0;exitPerimeter=0;entryX=0;entryY=0.5;entryDx=0;entryDy=0;entryPerimeter=0;" parent="1" source="44" target="34" edge="1">
            <mxGeometry relative="1" as="geometry">
              <mxPoint as="offset" />
              <Array as="points" />
            </mxGeometry>
          </mxCell>
        </UserObject>
        <UserObject label="&lt;div style=&quot;font-size: 1px&quot;&gt;&lt;font style=&quot;font-size:11.29px;font-family:Calibri;color:#000000;direction:ltr;letter-spacing:0px;line-height:120%;opacity:1&quot;&gt;No&lt;br/&gt;&lt;/font&gt;&lt;/div&gt;" tags="Verbinder" id="60">
          <mxCell style="vsdxID=39;edgeStyle=none;dashed=1;dashPattern=2.00 2.00;startArrow=none;endArrow=block;startSize=5;endSize=5;strokeWidth=2;strokeColor=#000000;spacingTop=0;spacingBottom=0;spacingLeft=0;spacingRight=0;verticalAlign=middle;html=1;labelBackgroundColor=#ffffff;rounded=0;align=center;exitX=0.5;exitY=1;exitDx=0;exitDy=0;exitPerimeter=0;entryX=0.5;entryY=0;entryDx=0;entryDy=0;entryPerimeter=0;" parent="1" source="17" target="13" edge="1">
            <mxGeometry relative="1" as="geometry">
              <mxPoint x="9" as="offset" />
              <Array as="points">
                <mxPoint x="-209" y="1424.42" />
                <mxPoint x="-208.98000000000002" y="1424.42" />
              </Array>
            </mxGeometry>
          </mxCell>
        </UserObject>
        <UserObject label="" tags="Verbinder" id="61">
          <mxCell style="vsdxID=21;edgeStyle=none;startArrow=none;endArrow=block;startSize=5;endSize=5;strokeWidth=2;strokeColor=#000000;spacingTop=0;spacingBottom=0;spacingLeft=0;spacingRight=0;verticalAlign=middle;html=1;labelBackgroundColor=#ffffff;rounded=0;exitX=0.5;exitY=1;exitDx=0;exitDy=0;exitPerimeter=0;entryX=0.5;entryY=0;entryDx=0;entryDy=0;entryPerimeter=0;" parent="1" source="8" target="10" edge="1">
            <mxGeometry relative="1" as="geometry">
              <mxPoint x="-10" as="offset" />
              <Array as="points">
                <mxPoint x="-41" y="830.42" />
                <mxPoint x="-41.01999999999998" y="830.42" />
              </Array>
            </mxGeometry>
          </mxCell>
        </UserObject>
        <UserObject label="&lt;div style=&quot;font-size: 1px&quot;&gt;&lt;font style=&quot;font-size:11.29px;font-family:Calibri;color:#000000;direction:ltr;letter-spacing:0px;line-height:120%;opacity:1&quot;&gt;No&lt;br/&gt;&lt;/font&gt;&lt;/div&gt;" tags="Verbinder" id="62">
          <mxCell style="vsdxID=19;edgeStyle=none;dashed=1;dashPattern=2.00 2.00;startArrow=none;endArrow=block;startSize=5;endSize=5;strokeWidth=2;strokeColor=#000000;spacingTop=0;spacingBottom=0;spacingLeft=0;spacingRight=0;verticalAlign=middle;html=1;labelBackgroundColor=#ffffff;rounded=0;align=center;exitX=0;exitY=0.5;exitDx=0;exitDy=0;exitPerimeter=0;entryX=1;entryY=0.5;entryDx=0;entryDy=0;entryPerimeter=0;" parent="1" source="21" target="5" edge="1">
            <mxGeometry relative="1" as="geometry">
              <mxPoint x="-1" as="offset" />
              <Array as="points">
                <mxPoint x="-280.4200000000001" y="660" />
                <mxPoint x="-280.4200000000001" y="659.99" />
              </Array>
            </mxGeometry>
          </mxCell>
        </UserObject>
        <UserObject label="&lt;div style=&quot;font-size: 1px&quot;&gt;&lt;font style=&quot;font-size:11.29px;font-family:Calibri;color:#000000;direction:ltr;letter-spacing:0px;line-height:120%;opacity:1&quot;&gt;Yes&lt;br/&gt;&lt;/font&gt;&lt;/div&gt;" tags="Verbinder" id="63">
          <mxCell style="vsdxID=18;edgeStyle=none;dashed=1;dashPattern=2.00 2.00;startArrow=none;endArrow=block;startSize=5;endSize=5;strokeWidth=2;strokeColor=#000000;spacingTop=0;spacingBottom=0;spacingLeft=0;spacingRight=0;verticalAlign=middle;html=1;labelBackgroundColor=#ffffff;rounded=0;align=center;exitX=0.5;exitY=1;exitDx=0;exitDy=0;exitPerimeter=0;entryX=0.5;entryY=0;entryDx=0;entryDy=0;entryPerimeter=0;" parent="1" source="21" target="6" edge="1">
            <mxGeometry relative="1" as="geometry">
              <mxPoint x="-10" y="-1" as="offset" />
              <Array as="points">
                <mxPoint x="-210" y="710.42" />
                <mxPoint x="-210.01" y="710.42" />
              </Array>
            </mxGeometry>
          </mxCell>
        </UserObject>
        <UserObject label="" tags="Verbinder" id="64">
          <mxCell style="vsdxID=40;edgeStyle=none;startArrow=none;endArrow=block;startSize=5;endSize=5;strokeWidth=2;strokeColor=#000000;spacingTop=0;spacingBottom=0;spacingLeft=0;spacingRight=0;verticalAlign=middle;html=1;labelBackgroundColor=#ffffff;rounded=0;exitX=0.5;exitY=1;exitDx=0;exitDy=0;exitPerimeter=0;entryX=0.5;entryY=0;entryDx=0;entryDy=0;entryPerimeter=0;" parent="1" source="13" target="15" edge="1">
            <mxGeometry relative="1" as="geometry">
              <mxPoint x="10" y="-1" as="offset" />
              <Array as="points" />
            </mxGeometry>
          </mxCell>
        </UserObject>
        <UserObject label="&lt;div style=&quot;font-size: 1px&quot;&gt;&lt;font style=&quot;font-size:11.29px;font-family:Calibri;color:#000000;direction:ltr;letter-spacing:0px;line-height:120%;opacity:1&quot;&gt;Yes&lt;br/&gt;&lt;/font&gt;&lt;/div&gt;" tags="Verbinder" id="65">
          <mxCell style="vsdxID=45;edgeStyle=none;dashed=1;dashPattern=2.00 2.00;startArrow=none;endArrow=block;startSize=5;endSize=5;strokeWidth=2;strokeColor=#000000;spacingTop=0;spacingBottom=0;spacingLeft=0;spacingRight=0;verticalAlign=middle;html=1;labelBackgroundColor=#ffffff;rounded=0;align=center;exitX=0;exitY=0.5;exitDx=0;exitDy=0;exitPerimeter=0;entryX=1;entryY=0.5;entryDx=0;entryDy=0;entryPerimeter=0;" parent="1" source="17" target="12" edge="1">
            <mxGeometry relative="1" as="geometry">
              <mxPoint as="offset" />
              <Array as="points" />
            </mxGeometry>
          </mxCell>
        </UserObject>
        <UserObject label="" tags="Verbinder" id="66">
          <mxCell style="vsdxID=46;edgeStyle=none;startArrow=none;endArrow=block;startSize=5;endSize=5;strokeWidth=2;strokeColor=#000000;spacingTop=0;spacingBottom=0;spacingLeft=0;spacingRight=0;verticalAlign=middle;html=1;labelBackgroundColor=#ffffff;rounded=0;exitX=0.5;exitY=1;exitDx=0;exitDy=0;exitPerimeter=0;entryX=0;entryY=0.5;entryDx=0;entryDy=0;entryPerimeter=0;" parent="1" source="12" target="13" edge="1">
            <mxGeometry relative="1" as="geometry">
              <mxPoint x="-1" as="offset" />
              <Array as="points">
                <mxPoint x="-382" y="1493.98" />
              </Array>
            </mxGeometry>
          </mxCell>
        </UserObject>
        <UserObject label="&lt;div style=&quot;font-size: 1px&quot;&gt;&lt;font style=&quot;font-size:11.29px;font-family:Calibri;color:#000000;direction:ltr;letter-spacing:0px;line-height:120%;opacity:1&quot;&gt;Yes&lt;br/&gt;&lt;/font&gt;&lt;/div&gt;" tags="Verbinder" id="67">
          <mxCell style="vsdxID=73;edgeStyle=none;dashed=1;dashPattern=2.00 2.00;startArrow=none;endArrow=block;startSize=5;endSize=5;strokeWidth=2;strokeColor=#000000;spacingTop=0;spacingBottom=0;spacingLeft=0;spacingRight=0;verticalAlign=middle;html=1;labelBackgroundColor=#ffffff;rounded=0;align=center;exitX=1;exitY=0.5;exitDx=0;exitDy=0;exitPerimeter=0;entryX=0;entryY=0.5;entryDx=0;entryDy=0;entryPerimeter=0;" parent="1" source="19" target="14" edge="1">
            <mxGeometry relative="1" as="geometry">
              <mxPoint x="-1" as="offset" />
              <Array as="points" />
            </mxGeometry>
          </mxCell>
        </UserObject>
        <UserObject label="" tags="Verbinder" id="68">
          <mxCell style="vsdxID=78;edgeStyle=none;startArrow=none;endArrow=block;startSize=5;endSize=5;strokeWidth=2;strokeColor=#000000;spacingTop=0;spacingBottom=0;spacingLeft=0;spacingRight=0;verticalAlign=middle;html=1;labelBackgroundColor=#ffffff;rounded=0;exitX=0.5;exitY=1;exitDx=0;exitDy=0;exitPerimeter=0;entryX=1;entryY=0.5;entryDx=0;entryDy=0;entryPerimeter=0;" parent="1" source="14" target="17" edge="1">
            <mxGeometry relative="1" as="geometry">
              <mxPoint as="offset" />
              <Array as="points">
                <mxPoint x="-41" y="1373.98" />
              </Array>
            </mxGeometry>
          </mxCell>
        </UserObject>
        <UserObject label="&lt;div style=&quot;font-size: 1px&quot;&gt;&lt;font style=&quot;font-size:11.29px;font-family:Calibri;color:#000000;direction:ltr;letter-spacing:0px;line-height:120%;opacity:1&quot;&gt;No&lt;br/&gt;&lt;/font&gt;&lt;/div&gt;" tags="Verbinder" id="69">
          <mxCell style="vsdxID=79;edgeStyle=none;dashed=1;dashPattern=2.00 2.00;startArrow=none;endArrow=block;startSize=5;endSize=5;strokeWidth=2;strokeColor=#000000;spacingTop=0;spacingBottom=0;spacingLeft=0;spacingRight=0;verticalAlign=middle;html=1;labelBackgroundColor=#ffffff;rounded=0;align=center;exitX=0.5;exitY=1;exitDx=0;exitDy=0;exitPerimeter=0;entryX=0.5;entryY=0;entryDx=0;entryDy=0;entryPerimeter=0;" parent="1" source="19" target="17" edge="1">
            <mxGeometry relative="1" as="geometry">
              <mxPoint x="10" y="-1" as="offset" />
              <Array as="points" />
            </mxGeometry>
          </mxCell>
        </UserObject>
        <UserObject label="&lt;div style=&quot;font-size: 1px&quot;&gt;&lt;font style=&quot;font-size:11.29px;font-family:Calibri;color:#000000;direction:ltr;letter-spacing:0px;line-height:120%;opacity:1&quot;&gt;No&lt;br/&gt;&lt;/font&gt;&lt;/div&gt;" tags="Verbinder" id="71">
          <mxCell style="vsdxID=97;edgeStyle=none;dashed=1;dashPattern=2.00 2.00;startArrow=none;endArrow=block;startSize=5;endSize=5;strokeWidth=2;strokeColor=#000000;spacingTop=0;spacingBottom=0;spacingLeft=0;spacingRight=0;verticalAlign=middle;html=1;labelBackgroundColor=#ffffff;rounded=0;align=center;exitX=0;exitY=0.5;exitDx=0;exitDy=0;exitPerimeter=0;entryX=0;entryY=0.5;entryDx=0;entryDy=0;entryPerimeter=0;" parent="1" source="25" target="19" edge="1">
            <mxGeometry relative="1" as="geometry">
              <mxPoint y="-1" as="offset" />
              <Array as="points">
                <mxPoint x="-551.76" y="780" />
                <mxPoint x="-551.76" y="1254.33" />
              </Array>
            </mxGeometry>
          </mxCell>
        </UserObject>
        <UserObject label="&lt;div style=&quot;font-size: 1px&quot;&gt;&lt;font style=&quot;font-size:11.29px;font-family:Calibri;color:#000000;direction:ltr;letter-spacing:0px;line-height:120%;opacity:1&quot;&gt;Yes&lt;br/&gt;&lt;/font&gt;&lt;/div&gt;" tags="Verbinder" id="72">
          <mxCell style="vsdxID=98;edgeStyle=none;dashed=1;dashPattern=2.00 2.00;startArrow=none;endArrow=block;startSize=5;endSize=5;strokeWidth=2;strokeColor=#000000;spacingTop=0;spacingBottom=0;spacingLeft=0;spacingRight=0;verticalAlign=middle;html=1;labelBackgroundColor=#ffffff;rounded=0;align=center;exitX=0.5;exitY=1;exitDx=0;exitDy=0;exitPerimeter=0;entryX=0.5;entryY=0;entryDx=0;entryDy=0;entryPerimeter=0;" parent="1" source="25" target="7" edge="1">
            <mxGeometry relative="1" as="geometry">
              <mxPoint x="10" y="-1" as="offset" />
              <Array as="points" />
            </mxGeometry>
          </mxCell>
        </UserObject>
        <UserObject label="&lt;div style=&quot;font-size: 1px&quot;&gt;&lt;font style=&quot;font-size:11.29px;font-family:Calibri;color:#000000;direction:ltr;letter-spacing:0px;line-height:120%;opacity:1&quot;&gt;Yes&lt;br/&gt;&lt;/font&gt;&lt;/div&gt;" tags="Verbinder" id="73">
          <mxCell style="vsdxID=100;edgeStyle=none;dashed=1;dashPattern=2.00 2.00;startArrow=none;endArrow=block;startSize=5;endSize=5;strokeWidth=2;strokeColor=#000000;spacingTop=0;spacingBottom=0;spacingLeft=0;spacingRight=0;verticalAlign=middle;html=1;labelBackgroundColor=#ffffff;rounded=0;align=center;exitX=0.5;exitY=1;exitDx=0;exitDy=0;exitPerimeter=0;entryX=0.5;entryY=0;entryDx=0;entryDy=0;entryPerimeter=0;" parent="1" source="27" target="9" edge="1">
            <mxGeometry relative="1" as="geometry">
              <mxPoint x="9" as="offset" />
              <Array as="points" />
            </mxGeometry>
          </mxCell>
        </UserObject>
        <UserObject label="" tags="Verbinder" id="74">
          <mxCell style="vsdxID=101;edgeStyle=none;startArrow=none;endArrow=block;startSize=5;endSize=5;strokeWidth=2;strokeColor=#000000;spacingTop=0;spacingBottom=0;spacingLeft=0;spacingRight=0;verticalAlign=middle;html=1;labelBackgroundColor=#ffffff;rounded=0;exitX=0.5;exitY=1;exitDx=0;exitDy=0;exitPerimeter=0;entryX=0.5;entryY=0;entryDx=0;entryDy=0;entryPerimeter=0;" parent="1" source="7" target="27" edge="1">
            <mxGeometry relative="1" as="geometry">
              <mxPoint x="-10" as="offset" />
              <Array as="points">
                <mxPoint x="-382" y="950.42" />
                <mxPoint x="-382.05" y="950.42" />
              </Array>
            </mxGeometry>
          </mxCell>
        </UserObject>
        <UserObject label="" tags="Verbinder" id="75">
          <mxCell style="vsdxID=108;edgeStyle=none;startArrow=none;endArrow=block;startSize=5;endSize=5;strokeWidth=2;strokeColor=#000000;spacingTop=0;spacingBottom=0;spacingLeft=0;spacingRight=0;verticalAlign=middle;html=1;labelBackgroundColor=#ffffff;rounded=0;exitX=0.5;exitY=1;exitDx=0;exitDy=0;exitPerimeter=0;entryX=0.5;entryY=0;entryDx=0;entryDy=0;entryPerimeter=0;" parent="1" source="10" target="29" edge="1">
            <mxGeometry relative="1" as="geometry">
              <mxPoint x="10" as="offset" />
              <Array as="points" />
            </mxGeometry>
          </mxCell>
        </UserObject>
        <UserObject label="&lt;div style=&quot;font-size: 1px&quot;&gt;&lt;font style=&quot;font-size:11.29px;font-family:Calibri;color:#000000;direction:ltr;letter-spacing:0px;line-height:120%;opacity:1&quot;&gt;No&lt;br/&gt;&lt;/font&gt;&lt;/div&gt;" tags="Verbinder" id="76">
          <mxCell style="vsdxID=110;edgeStyle=none;dashed=1;dashPattern=2.00 2.00;startArrow=none;endArrow=block;startSize=5;endSize=5;strokeWidth=2;strokeColor=#000000;spacingTop=0;spacingBottom=0;spacingLeft=0;spacingRight=0;verticalAlign=middle;html=1;labelBackgroundColor=#ffffff;rounded=0;align=center;exitX=0;exitY=0.5;exitDx=0;exitDy=0;exitPerimeter=0;entryX=0.5;entryY=0;entryDx=0;entryDy=0;entryPerimeter=0;" parent="1" source="29" target="31" edge="1">
            <mxGeometry relative="1" as="geometry">
              <mxPoint as="offset" />
              <Array as="points">
                <mxPoint x="-208.49" y="1018" />
              </Array>
            </mxGeometry>
          </mxCell>
        </UserObject>
        <UserObject label="" tags="Verbinder" id="77">
          <mxCell style="vsdxID=112;edgeStyle=none;startArrow=none;endArrow=block;startSize=5;endSize=5;strokeWidth=2;strokeColor=#000000;spacingTop=0;spacingBottom=0;spacingLeft=0;spacingRight=0;verticalAlign=middle;html=1;labelBackgroundColor=#ffffff;rounded=0;exitX=0;exitY=0.5;exitDx=0;exitDy=0;exitPerimeter=0;entryX=1;entryY=0.5;entryDx=0;entryDy=0;entryPerimeter=0;" parent="1" source="11" target="31" edge="1">
            <mxGeometry relative="1" as="geometry">
              <mxPoint as="offset" />
              <Array as="points" />
            </mxGeometry>
          </mxCell>
        </UserObject>
        <UserObject label="&lt;div style=&quot;font-size: 1px&quot;&gt;&lt;font style=&quot;font-size:11.29px;font-family:Calibri;color:#000000;direction:ltr;letter-spacing:0px;line-height:120%;opacity:1&quot;&gt;Yes&lt;br/&gt;&lt;/font&gt;&lt;/div&gt;" tags="Verbinder" id="78">
          <mxCell style="vsdxID=115;edgeStyle=none;dashed=1;dashPattern=2.00 2.00;startArrow=none;endArrow=block;startSize=5;endSize=5;strokeWidth=2;strokeColor=#000000;spacingTop=0;spacingBottom=0;spacingLeft=0;spacingRight=0;verticalAlign=middle;html=1;labelBackgroundColor=#ffffff;rounded=0;align=center;exitX=0;exitY=0.5;exitDx=0;exitDy=0;exitPerimeter=0;entryX=1;entryY=0.5;entryDx=0;entryDy=0;entryPerimeter=0;" parent="1" source="31" target="9" edge="1">
            <mxGeometry relative="1" as="geometry">
              <mxPoint as="offset" />
              <Array as="points" />
            </mxGeometry>
          </mxCell>
        </UserObject>
        <UserObject label="&lt;div style=&quot;font-size: 1px&quot;&gt;&lt;font style=&quot;font-size:11.29px;font-family:Calibri;color:#000000;direction:ltr;letter-spacing:0px;line-height:120%;opacity:1&quot;&gt;No&lt;br/&gt;&lt;/font&gt;&lt;/div&gt;" tags="Verbinder" id="79">
          <mxCell style="vsdxID=116;edgeStyle=none;dashed=1;dashPattern=2.00 2.00;startArrow=none;endArrow=block;startSize=5;endSize=5;strokeWidth=2;strokeColor=#000000;spacingTop=0;spacingBottom=0;spacingLeft=0;spacingRight=0;verticalAlign=middle;html=1;labelBackgroundColor=#ffffff;rounded=0;align=center;exitX=0.5;exitY=1;exitDx=0;exitDy=0;exitPerimeter=0;entryX=0.5;entryY=0;entryDx=0;entryDy=0;entryPerimeter=0;" parent="1" source="31" target="19" edge="1">
            <mxGeometry relative="1" as="geometry">
              <mxPoint x="-10" as="offset" />
              <Array as="points">
                <mxPoint x="-209" y="1186.42" />
                <mxPoint x="-209.01" y="1186.42" />
              </Array>
            </mxGeometry>
          </mxCell>
        </UserObject>
        <UserObject label="&lt;div style=&quot;font-size: 1px&quot;&gt;&lt;font style=&quot;font-size:11.29px;font-family:Calibri;color:#000000;direction:ltr;letter-spacing:0px;line-height:120%;opacity:1&quot;&gt;Yes&lt;br/&gt;&lt;/font&gt;&lt;/div&gt;" tags="Verbinder" id="80">
          <mxCell style="vsdxID=118;edgeStyle=none;dashed=1;dashPattern=2.00 2.00;startArrow=none;endArrow=block;startSize=5;endSize=5;strokeWidth=2;strokeColor=#000000;spacingTop=0;spacingBottom=0;spacingLeft=0;spacingRight=0;verticalAlign=middle;html=1;labelBackgroundColor=#ffffff;rounded=0;align=center;exitX=0.5;exitY=1;exitDx=0;exitDy=0;exitPerimeter=0;entryX=0.5;entryY=0;entryDx=0;entryDy=0;entryPerimeter=0;" parent="1" source="29" target="11" edge="1">
            <mxGeometry relative="1" as="geometry">
              <mxPoint x="10" as="offset" />
              <Array as="points" />
            </mxGeometry>
          </mxCell>
        </UserObject>
        <UserObject label="" tags="Verbinder" id="81">
          <mxCell style="vsdxID=119;edgeStyle=none;startArrow=none;endArrow=block;startSize=5;endSize=5;strokeWidth=2;strokeColor=#000000;spacingTop=0;spacingBottom=0;spacingLeft=0;spacingRight=0;verticalAlign=middle;html=1;labelBackgroundColor=#ffffff;rounded=0;exitX=1;exitY=0.5;exitDx=0;exitDy=0;exitPerimeter=0;entryX=0;entryY=0.5;entryDx=0;entryDy=0;entryPerimeter=0;" parent="1" source="3" target="23" edge="1">
            <mxGeometry relative="1" as="geometry">
              <mxPoint x="-1" as="offset" />
              <Array as="points">
                <mxPoint x="-306.58" y="189" />
                <mxPoint x="-306.58" y="189.03" />
              </Array>
            </mxGeometry>
          </mxCell>
        </UserObject>
        <UserObject label="&lt;div style=&quot;font-size: 1px&quot;&gt;&lt;font style=&quot;font-size:11.29px;font-family:Calibri;color:#000000;direction:ltr;letter-spacing:0px;line-height:120%;opacity:1&quot;&gt;No&lt;br/&gt;&lt;/font&gt;&lt;/div&gt;" tags="Verbinder" id="82">
          <mxCell style="vsdxID=121;edgeStyle=none;dashed=1;dashPattern=2.00 2.00;startArrow=none;endArrow=block;startSize=5;endSize=5;strokeWidth=2;strokeColor=#000000;spacingTop=0;spacingBottom=0;spacingLeft=0;spacingRight=0;verticalAlign=middle;html=1;labelBackgroundColor=#ffffff;rounded=0;align=center;exitX=1;exitY=0.5;exitDx=0;exitDy=0;exitPerimeter=0;entryX=0.5;entryY=0;entryDx=0;entryDy=0;entryPerimeter=0;" parent="1" source="23" target="33" edge="1">
            <mxGeometry relative="1" as="geometry">
              <mxPoint as="offset" />
              <Array as="points">
                <mxPoint x="-40.960000000000036" y="189" />
              </Array>
            </mxGeometry>
          </mxCell>
        </UserObject>
        <UserObject label="&lt;div style=&quot;font-size: 1px&quot;&gt;&lt;font style=&quot;font-size:11.29px;font-family:Calibri;color:#000000;direction:ltr;letter-spacing:0px;line-height:120%;opacity:1&quot;&gt;Yes&lt;br/&gt;&lt;/font&gt;&lt;/div&gt;" tags="Verbinder" id="83">
          <mxCell style="vsdxID=124;edgeStyle=none;dashed=1;dashPattern=2.00 2.00;startArrow=none;endArrow=block;startSize=5;endSize=5;strokeWidth=2;strokeColor=#000000;spacingTop=0;spacingBottom=0;spacingLeft=0;spacingRight=0;verticalAlign=middle;html=1;labelBackgroundColor=#ffffff;rounded=0;align=center;exitX=1;exitY=0.5;exitDx=0;exitDy=0;exitPerimeter=0;entryX=0;entryY=0.5;entryDx=0;entryDy=0;entryPerimeter=0;" parent="1" source="34" target="3" edge="1">
            <mxGeometry relative="1" as="geometry">
              <mxPoint as="offset" />
              <Array as="points">
                <mxPoint x="-474.58" y="189" />
                <mxPoint x="-474.58" y="188.97" />
              </Array>
            </mxGeometry>
          </mxCell>
        </UserObject>
        <UserObject label="&lt;div style=&quot;font-size: 1px&quot;&gt;&lt;font style=&quot;font-size:11.29px;font-family:Calibri;color:#000000;direction:ltr;letter-spacing:0px;line-height:120%;opacity:1&quot;&gt;No&lt;br/&gt;&lt;/font&gt;&lt;/div&gt;" tags="Verbinder" id="84">
          <mxCell style="vsdxID=125;edgeStyle=none;dashed=1;dashPattern=2.00 2.00;startArrow=none;endArrow=block;startSize=5;endSize=5;strokeWidth=2;strokeColor=#000000;spacingTop=0;spacingBottom=0;spacingLeft=0;spacingRight=0;verticalAlign=middle;html=1;labelBackgroundColor=#ffffff;rounded=0;align=center;exitX=0.5;exitY=1;exitDx=0;exitDy=0;exitPerimeter=0;entryX=0.5;entryY=0;entryDx=0;entryDy=0;entryPerimeter=0;" parent="1" source="34" target="16" edge="1">
            <mxGeometry relative="1" as="geometry">
              <mxPoint x="10" y="-1" as="offset" />
              <Array as="points" />
            </mxGeometry>
          </mxCell>
        </UserObject>
        <UserObject label="" tags="Verbinder" id="85">
          <mxCell style="vsdxID=126;edgeStyle=none;startArrow=none;endArrow=block;startSize=5;endSize=5;strokeWidth=2;strokeColor=#000000;spacingTop=0;spacingBottom=0;spacingLeft=0;spacingRight=0;verticalAlign=middle;html=1;labelBackgroundColor=#ffffff;rounded=0;exitX=1;exitY=0.5;exitDx=0;exitDy=0;exitPerimeter=0;entryX=0.5;entryY=1;entryDx=0;entryDy=0;entryPerimeter=0;" parent="1" source="16" target="3" edge="1">
            <mxGeometry relative="1" as="geometry">
              <mxPoint as="offset" />
              <Array as="points">
                <mxPoint x="-376.24" y="311" />
              </Array>
            </mxGeometry>
          </mxCell>
        </UserObject>
        <UserObject label="" tags="Verbinder" id="86">
          <mxCell style="vsdxID=133;edgeStyle=none;startArrow=none;endArrow=block;startSize=5;endSize=5;strokeWidth=2;strokeColor=#000000;spacingTop=0;spacingBottom=0;spacingLeft=0;spacingRight=0;verticalAlign=middle;html=1;labelBackgroundColor=#ffffff;rounded=0;exitX=0.5;exitY=1;exitDx=0;exitDy=0;exitPerimeter=0;entryX=0.5;entryY=0;entryDx=0;entryDy=0;entryPerimeter=0;" parent="1" source="4" target="38" edge="1">
            <mxGeometry relative="1" as="geometry">
              <mxPoint x="10" y="-1" as="offset" />
              <Array as="points" />
            </mxGeometry>
          </mxCell>
        </UserObject>
        <UserObject label="&lt;div style=&quot;font-size: 1px&quot;&gt;&lt;font style=&quot;font-size:11.29px;font-family:Calibri;color:#000000;direction:ltr;letter-spacing:0px;line-height:120%;opacity:1&quot;&gt;No&lt;br/&gt;&lt;/font&gt;&lt;/div&gt;" tags="Verbinder" id="87">
          <mxCell style="vsdxID=134;edgeStyle=none;dashed=1;dashPattern=2.00 2.00;startArrow=none;endArrow=block;startSize=5;endSize=5;strokeWidth=2;strokeColor=#000000;spacingTop=0;spacingBottom=0;spacingLeft=0;spacingRight=0;verticalAlign=middle;html=1;labelBackgroundColor=#ffffff;rounded=0;align=center;exitX=1;exitY=0.5;exitDx=0;exitDy=0;exitPerimeter=0;entryX=0.5;entryY=1;entryDx=0;entryDy=0;entryPerimeter=0;" parent="1" source="38" target="33" edge="1">
            <mxGeometry relative="1" as="geometry">
              <mxPoint as="offset" />
              <Array as="points">
                <mxPoint x="-40.940000000000055" y="431" />
              </Array>
            </mxGeometry>
          </mxCell>
        </UserObject>
        <UserObject label="&lt;div style=&quot;font-size: 1px&quot;&gt;&lt;font style=&quot;font-size:11.29px;font-family:Calibri;color:#000000;direction:ltr;letter-spacing:0px;line-height:120%;opacity:1&quot;&gt;Yes&lt;br/&gt;&lt;/font&gt;&lt;/div&gt;" tags="Verbinder" id="88">
          <mxCell style="vsdxID=135;edgeStyle=none;dashed=1;dashPattern=2.00 2.00;startArrow=none;endArrow=block;startSize=5;endSize=5;strokeWidth=2;strokeColor=#000000;spacingTop=0;spacingBottom=0;spacingLeft=0;spacingRight=0;verticalAlign=middle;html=1;labelBackgroundColor=#ffffff;rounded=0;align=center;exitX=0.5;exitY=1;exitDx=0;exitDy=0;exitPerimeter=0;entryX=0.523;entryY=-0.015;entryDx=0;entryDy=0;entryPerimeter=0;" parent="1" source="38" target="41" edge="1">
            <mxGeometry relative="1" as="geometry">
              <mxPoint x="-9" as="offset" />
              <Array as="points">
                <mxPoint x="-207" y="481.42" />
              </Array>
            </mxGeometry>
          </mxCell>
        </UserObject>
        <UserObject label="&lt;div style=&quot;font-size: 1px&quot;&gt;&lt;font style=&quot;font-size:11.29px;font-family:Calibri;color:#000000;direction:ltr;letter-spacing:0px;line-height:120%;opacity:1&quot;&gt;No&lt;br/&gt;&lt;/font&gt;&lt;/div&gt;" tags="Verbinder" id="89">
          <mxCell style="vsdxID=138;edgeStyle=none;dashed=1;dashPattern=2.00 2.00;startArrow=none;endArrow=block;startSize=5;endSize=5;strokeWidth=2;strokeColor=#000000;spacingTop=0;spacingBottom=0;spacingLeft=0;spacingRight=0;verticalAlign=middle;html=1;labelBackgroundColor=#ffffff;rounded=0;align=center;exitX=0.5;exitY=1;exitDx=0;exitDy=0;exitPerimeter=0;entryX=0.5;entryY=0;entryDx=0;entryDy=0;entryPerimeter=0;" parent="1" source="41" target="21" edge="1">
            <mxGeometry relative="1" as="geometry">
              <mxPoint x="10" y="-1" as="offset" />
              <Array as="points" />
            </mxGeometry>
          </mxCell>
        </UserObject>
        <UserObject label="&lt;div style=&quot;font-size: 1px&quot;&gt;&lt;font style=&quot;font-size:11.29px;font-family:Calibri;color:#000000;direction:ltr;letter-spacing:0px;line-height:120%;opacity:1&quot;&gt;Yes&lt;br/&gt;&lt;/font&gt;&lt;/div&gt;" tags="Verbinder" id="90">
          <mxCell style="vsdxID=139;edgeStyle=none;dashed=1;dashPattern=2.00 2.00;startArrow=none;endArrow=block;startSize=5;endSize=5;strokeWidth=2;strokeColor=#000000;spacingTop=0;spacingBottom=0;spacingLeft=0;spacingRight=0;verticalAlign=middle;html=1;labelBackgroundColor=#ffffff;rounded=0;align=center;exitX=1;exitY=0.5;exitDx=0;exitDy=0;exitPerimeter=0;entryX=0;entryY=0.5;entryDx=0;entryDy=0;entryPerimeter=0;" parent="1" source="41" target="40" edge="1">
            <mxGeometry relative="1" as="geometry">
              <mxPoint as="offset" />
              <Array as="points">
                <mxPoint x="-139.58000000000004" y="537" />
                <mxPoint x="-139.58000000000004" y="536.99" />
              </Array>
            </mxGeometry>
          </mxCell>
        </UserObject>
        <UserObject label="" tags="Verbinder" id="91">
          <mxCell style="vsdxID=140;edgeStyle=none;startArrow=none;endArrow=block;startSize=5;endSize=5;strokeWidth=2;strokeColor=#000000;spacingTop=0;spacingBottom=0;spacingLeft=0;spacingRight=0;verticalAlign=middle;html=1;labelBackgroundColor=#ffffff;rounded=0;exitX=0.5;exitY=1;exitDx=0;exitDy=0;exitPerimeter=0;entryX=1;entryY=0.5;entryDx=0;entryDy=0;entryPerimeter=0;" parent="1" source="40" target="21" edge="1">
            <mxGeometry relative="1" as="geometry">
              <mxPoint as="offset" />
              <Array as="points">
                <mxPoint x="-41" y="660.2" />
              </Array>
            </mxGeometry>
          </mxCell>
        </UserObject>
        <UserObject label="" tags="Verbinder" id="92">
          <mxCell style="vsdxID=150;edgeStyle=none;startArrow=none;endArrow=block;startSize=5;endSize=5;strokeWidth=2;strokeColor=#000000;spacingTop=0;spacingBottom=0;spacingLeft=0;spacingRight=0;verticalAlign=middle;html=1;labelBackgroundColor=#ffffff;rounded=0;exitX=1;exitY=0.5;exitDx=0;exitDy=0;exitPerimeter=0;entryX=0;entryY=0.5;entryDx=0;entryDy=0;entryPerimeter=0;" parent="1" source="6" target="8" edge="1">
            <mxGeometry relative="1" as="geometry">
              <mxPoint as="offset" />
              <Array as="points">
                <mxPoint x="-139.58000000000004" y="780" />
                <mxPoint x="-139.58000000000004" y="780.01" />
              </Array>
            </mxGeometry>
          </mxCell>
        </UserObject>
        <mxCell id="wVUiehLgAfWt3EgSe4bp-93" value="Cofused user" style="shape=umlActor;verticalLabelPosition=bottom;verticalAlign=top;html=1;outlineConnect=0;" vertex="1" parent="1">
          <mxGeometry x="-820" y="157" width="30" height="60" as="geometry" />
        </mxCell>
        <UserObject label="" tags="Verbinder" id="wVUiehLgAfWt3EgSe4bp-98">
          <mxCell style="vsdxID=133;edgeStyle=none;startArrow=none;endArrow=block;startSize=5;endSize=5;strokeWidth=2;strokeColor=#000000;spacingTop=0;spacingBottom=0;spacingLeft=0;spacingRight=0;verticalAlign=middle;html=1;labelBackgroundColor=#ffffff;rounded=0;exitX=0.5;exitY=1;exitDx=0;exitDy=0;exitPerimeter=0;entryX=0.5;entryY=0;entryDx=0;entryDy=0;entryPerimeter=0;" edge="1" parent="1">
            <mxGeometry relative="1" as="geometry">
              <mxPoint x="10" y="-1" as="offset" />
              <Array as="points" />
              <mxPoint x="-382.41999999999996" y="690" as="sourcePoint" />
              <mxPoint x="-382.41999999999996" y="750" as="targetPoint" />
            </mxGeometry>
          </mxCell>
        </UserObject>
      </root>
    </mxGraphModel>
  </diagram>
</mxfile>
